<?xml version="1.0" encoding="UTF-8" standalone="no"?>
<svg
   xmlns:dc="http://purl.org/dc/elements/1.1/"
   xmlns:cc="http://creativecommons.org/ns#"
   xmlns:rdf="http://www.w3.org/1999/02/22-rdf-syntax-ns#"
   xmlns:svg="http://www.w3.org/2000/svg"
   xmlns="http://www.w3.org/2000/svg"
   xmlns:sodipodi="http://sodipodi.sourceforge.net/DTD/sodipodi-0.dtd"
   xmlns:inkscape="http://www.inkscape.org/namespaces/inkscape"
   width="467.8"
   viewBox="22.780625 0 123.772083333333 169.33334"
   version="1.1"
   id="svg1084"
   inkscape:version="1.0.1 (3bc2e813f5, 2020-09-07)"
   sodipodi:docname="AME (2).svg">
  <defs
     id="defs1078" />
  <sodipodi:namedview
     id="base"
     pagecolor="#ffffff"
     bordercolor="#666666"
     borderopacity="1.0"
     inkscape:pageopacity="0.0"
     inkscape:pageshadow="2"
     inkscape:zoom="3.959798"
     inkscape:cx="264.57442"
     inkscape:cy="435.43977"
     inkscape:document-units="mm"
     inkscape:current-layer="layer1"
     inkscape:document-rotation="0"
     showgrid="false"
     units="px"
     inkscape:object-nodes="true"
     inkscape:snap-intersection-paths="true"
     inkscape:object-paths="true"
     inkscape:snap-smooth-nodes="true"
     inkscape:snap-object-midpoints="false"
     inkscape:snap-center="false"
     inkscape:snap-page="false"
     inkscape:snap-text-baseline="false"
     inkscape:window-width="1360"
     inkscape:window-height="746"
     inkscape:window-x="-8"
     inkscape:window-y="-8"
     inkscape:window-maximized="1"
     inkscape:snap-midpoints="true" />
  <metadata
     id="metadata1081">
    <rdf:RDF>
      <cc:Work
         rdf:about="">
        <dc:format>image/svg+xml</dc:format>
        <dc:type
           rdf:resource="http://purl.org/dc/dcmitype/StillImage" />
        <dc:title />
      </cc:Work>
    </rdf:RDF>
  </metadata>
  <g
     inkscape:label="Layer 1"
     inkscape:groupmode="layer"
     id="layer1">
    <path
       style="fill:#334863;fill-opacity:1;stroke:none;stroke-width:0.264583px;stroke-linecap:butt;stroke-linejoin:miter;stroke-opacity:1"
       d="m 22.784354,30.845286 0.01294,89.453364 c 0,0 7.215769,33.13787 61.875688,49.03469 0,0 53.065055,-15.73614 61.875705,-49.03469 l -4e-5,-93.201613 c 0,0 0.15252,-3.23844 -5.42824,-3.618424 -5.58078,-0.379985 -24.64452,0.860148 -52.894293,-21.5772283 0,0 -1.639146,-1.29504685 -3.559618,-1.9013847 0,0 -1.440236,0.31225954 -3.559637,1.9013847 -2.119398,1.5891241 -27.790114,22.4222963 -52.894277,21.5772283 0,0 -5.428256,-0.129833 -5.428256,3.618424 0,3.748249 0,3.748249 0,3.748249 z"
       id="path1654-2" />
    <path
       style="fill:#f8b037;fill-opacity:1;stroke:none;stroke-width:0.264999;stroke-linecap:butt;stroke-linejoin:miter;stroke-miterlimit:4;stroke-dasharray:none;stroke-opacity:1"
       d="m 29.422335,34.410708 v 3.346041 H 139.91014 v -3.346041 c 0,0 0.61586,-2.905802 -4.84595,-3.23014 -5.46179,-0.324337 -22.46233,-0.270577 -47.22017,-19.261855 0,0 -2.422882,-1.834654 -3.177777,-1.697354 -0.754884,0.137301 -1.291431,0.243147 -3.177773,1.697354 -1.886346,1.454204 -24.347475,18.862429 -47.220179,19.261855 0,0 -4.845956,-0.1159 -4.845956,3.23014"
       id="path1101" />
    <rect
       style="fill:#ffffff;fill-opacity:1;fill-rule:evenodd;stroke:#000000;stroke-width:0;stroke-miterlimit:4;stroke-dasharray:none;stroke-opacity:1"
       id="rect1133"
       width="110.48781"
       height="45.497425"
       x="29.42234"
       y="37.756752" />
    <path
       style="fill:#0db0c1;fill-opacity:1;stroke:none;stroke-width:0.264583px;stroke-linecap:butt;stroke-linejoin:miter;stroke-opacity:1"
       d="m 45.619897,42.882816 -12.385716,34.414511 10.218204,0.649322 1.857869,-5.843973 11.456784,-0.324661 1.857861,6.493311 15.791787,-0.324677 V 53.272101 l 6.502496,24.025226 h 7.741072 l 6.192854,-24.674556 v 25.323878 l 8.670002,-0.324653 -0.30965,-35.063844 H 89.898815 L 84.634899,63.98605 79.37097,42.558152 H 65.746682 L 65.437039,66.25871 57.076682,42.882816 Z"
       id="path1094" />
    <path
       style="fill:#ffffff;fill-opacity:1;stroke:none;stroke-width:0.264583px;stroke-linecap:butt;stroke-linejoin:miter;stroke-opacity:1"
       d="m 47.168112,64.960049 4.025356,-12.661943 4.025358,12.661943 z"
       id="path1098" />
    <rect
       style="fill:#0db0c1;fill-opacity:1;stroke:none;stroke-width:0.264999;stroke-miterlimit:4;stroke-dasharray:none;stroke-opacity:1"
       id="rect1112-7"
       width="24.281605"
       height="7.467299"
       x="108.13551"
       y="69.783752" />
    <rect
       style="fill:#0db0c1;fill-opacity:1;stroke:none;stroke-width:0.264999;stroke-miterlimit:4;stroke-dasharray:none;stroke-opacity:1"
       id="rect1112-2"
       width="24.281605"
       height="7.467299"
       x="108.13551"
       y="55.537861" />
    <rect
       style="fill:#0db0c1;fill-opacity:1;stroke:none;stroke-width:0.264999;stroke-miterlimit:4;stroke-dasharray:none;stroke-opacity:1"
       id="rect1112-2-2-7"
       width="24.281605"
       height="7.467299"
       x="108.13551"
       y="42.464565" />
    <path
       style="fill:#f8b037;fill-opacity:1;stroke:none;stroke-width:0.264583px;stroke-linecap:butt;stroke-linejoin:miter;stroke-opacity:1"
       d="m 29.422311,83.254175 0.01221,34.357025 c 0,0 3.441798,28.42815 55.238129,43.77298 0,0 49.080239,-13.35527 55.238129,-43.77298 V 83.254175 H 29.422923"
       id="path1185" />
    <path
       style="fill:#ffffff;fill-opacity:1;stroke:none;stroke-width:0.264583px;stroke-linecap:butt;stroke-linejoin:miter;stroke-opacity:1"
       d="m 51.691822,146.42085 h 1.527627 v -33.81873 h -2.117216 v -5.14152 h -5.456144 v -2.05938 h 77.841791 v 2.05938 h -5.45614 v 5.14152 h -2.11721 v 33.81873 h 1.52762 l -6.24545,3.80827 V 112.6021 h -2.45201 v 38.96979 l -5.96007,2.9603 H 66.175159 l -5.785851,-2.85967 V 112.6021 h -2.452026 v 37.72033 z"
       id="path1463" />
    <path
       style="fill:#f8b037;fill-opacity:1;stroke:none;stroke-width:0.264583px;stroke-linecap:butt;stroke-linejoin:miter;stroke-opacity:1"
       d="m 65.165496,112.67541 h 2.117215 v -5.14152 h 34.685269 v 5.14152 h 2.11723 v 33.81871 h -2.11723 v 5.14155 H 67.282711 v -5.14155 h -2.117215 z"
       id="path1482" />
    <path
       style="fill:#fcfcfc;fill-opacity:1;stroke:none;stroke-width:0.264583px;stroke-linecap:butt;stroke-linejoin:miter;stroke-opacity:1"
       d="M 84.566998,86.281623 46.438407,102.33621 c 0,0 -0.892285,0.33362 1.380371,0.33362 2.272643,0 73.496412,0 73.496412,0 0,0 2.24492,0.0304 1.38037,-0.33363 -0.86454,-0.36402 -38.128562,-16.054577 -38.128562,-16.054577"
       id="path1604" />
    <circle
       style="fill:#f8b037;fill-opacity:1;fill-rule:evenodd;stroke:none;stroke-width:0.264999;stroke-miterlimit:4;stroke-dasharray:none;stroke-opacity:1"
       id="path1637"
       cx="84.566986"
       cy="94.475731"
       r="3.9433911" />
    <circle
       style="fill:#0db0c1;fill-opacity:1;fill-rule:evenodd;stroke:none;stroke-width:0.264999;stroke-miterlimit:4;stroke-dasharray:none;stroke-opacity:1"
       id="path1637-0"
       cx="84.566986"
       cy="94.475731"
       r="2.2997856" />
    <path
       style="fill:none;stroke:#000000;stroke-width:1.05833333;stroke-linecap:butt;stroke-linejoin:miter;stroke-opacity:1;stroke-miterlimit:4;stroke-dasharray:none"
       d="m 92.845959,134.55435 c 0,0 0.101066,-6.84037 2.819818,-7.51507 2.718753,-0.6747 2.423533,7.44331 2.423533,7.44331"
       id="path914" />
    <path
       style="fill:none;stroke:#000000;stroke-width:1.05833333;stroke-linecap:butt;stroke-linejoin:miter;stroke-opacity:1;stroke-miterlimit:4;stroke-dasharray:none"
       d="m 87.602608,134.63713 c 0,0 0.101066,-7.65907 2.819818,-8.41452 2.718753,-0.75545 2.423533,8.33416 2.423533,8.33416"
       id="path914-4" />
    <path
       style="fill:none;stroke:#000000;stroke-width:1.05833333;stroke-linecap:butt;stroke-linejoin:miter;stroke-opacity:1;stroke-miterlimit:4;stroke-dasharray:none"
       d="m 82.359257,134.7312 c 0,0 0.101066,-8.80078 2.819818,-9.66885 2.718753,-0.86806 2.423533,9.57651 2.423533,9.57651"
       id="path914-4-2" />
    <path
       style="fill:none;stroke:#000000;stroke-width:1.05833333;stroke-linecap:butt;stroke-linejoin:miter;stroke-miterlimit:4;stroke-dasharray:none;stroke-opacity:1"
       d="m 98.098707,133.80333 c 0,0 0.142533,7.49484 -0.735936,10.31147 -0.878472,2.81662 -11.767003,2.90787 -11.767003,2.90787 0,0 -2.156788,0.13774 -3.788317,-0.21243 -1.631529,-0.35018 -4.111506,-0.82986 -5.961581,-2.95549 -1.850072,-2.12564 -4.471413,-4.96795 -6.115185,-7.02602 -1.643774,-2.05807 -0.240609,-3.86214 -0.240609,-3.86214 0,0 0.601358,-0.46772 1.135896,-0.53454 0.53454,-0.0668 5.87993,3.87541 6.013563,5.34539"
       id="path975"
       sodipodi:nodetypes="cscssscsc" />
    <path
       style="fill:none;stroke:#000000;stroke-width:1.05833;stroke-linecap:butt;stroke-linejoin:miter;stroke-miterlimit:4;stroke-dasharray:none;stroke-opacity:1"
       d="m 76.639535,137.77744 c 0,0 -0.681603,-20.13334 1.738892,-22.56152 0.437443,-0.57727 2.204917,-0.77839 2.630927,0.17113 2.245206,5.00428 1.625911,12.92867 1.352296,19.21861"
       id="path981"
       sodipodi:nodetypes="ccsc" />
    <path
       style="fill:none;stroke:#000000;stroke-width:1.32291667;stroke-linecap:butt;stroke-linejoin:miter;stroke-miterlimit:4;stroke-dasharray:none;stroke-opacity:1"
       d="m 75.874917,119.18751 c 0,0 -2.271791,-1.87088 -1.069079,-4.34313 1.719626,-3.53479 4.744035,-3.00678 4.744035,-3.00678 0,0 3.11904,-0.31478 4.34313,2.40542 1.202713,2.6727 -0.467722,4.54359 -0.467722,4.54359"
       id="path985"
       sodipodi:nodetypes="cscsc" />
  </g>
  <script type="text/javascript">
    //<![CDATA[
      var url_parameters=new URL(window.location.toString()).searchParams;
      if(url_parameters.get('opacity'))
      {
        document.getElementsByTagName("svg")[0].style.opacity=url_parameters.get('opacity');
      }
      if(url_parameters.get('background-color'))
      {
        document.getElementsByTagName("svg")[0].style.backgroundColor=url_parameters.get('background-color').replace("hash","#");
      }
      if(url_parameters.get('width'))
      {
        document.getElementsByTagName("svg")[0].setAttribute("width",url_parameters.get('width'));
      }
    //]]>
  </script>

</svg>
